# xmcd
#
# Track frame offsets: 
#        150
#        20409
#        48489
#        68586
#        87999
#        110940
#        133404
#        158262
#        183768
#        210408
#
# Disc length: 3172 seconds
#
# Revision: 0
# Processed by: cddbd v1.5.2PL0 Copyright (c) Steve Scherf et al.
# Submitted via: ExactAudioCopy v1.0b3
#
DISCID=810c620a
DTITLE=Duy Khanh - Nguoi Linh Gia Xa Que Huong
DYEAR=1900
DGENRE=
TTITLE0=Nhan ve
TTITLE1=Nguoi linh gia xa que huong
TTITLE2=Thu nguoi chien binh
TTITLE3=Dem tren vung dat la
TTITLE4=Duy Khanh, Thuy Khanh, Hanh Dung - Hom nay ngay mai
TTITLE5=Dem tien don
TTITLE6=Cam on
TTITLE7=Nhung dom mat hoa chau
TTITLE8=Linh nghi gi
TTITLE9=Biet tra loi sao
EXTD=
EXTT0=
EXTT1=
EXTT2=
EXTT3=
EXTT4=
EXTT5=
EXTT6=
EXTT7=
EXTT8=
EXTT9=
PLAYORDER=
